# xmcd
#
# Track frame offsets:
#	150
#	15200
#	30445
#	53695
#	68245
#	78145
#	94542
#	110067
#	131021
#	143862
#	166105
#	183807
#	198282
#	214191
#	237515
#	253192
#
# Disc length: 3630 seconds
#
# Revision: 0
# Processed by: cddbd v1.5.2PL0 Copyright (c) Steve Scherf et al.
# Submitted via: EasyCDDAExtractor 16.0.8.2
#
DISCID=cd0e2c10
DTITLE=Κολλητήρη Σοφία - Το αηδόνι της Ρούμελης-Σ. Κολλητήρη 2
DYEAR=2015
DGENRE=Παραδοσιακή
TTITLE0=Λεβεντομάνα Ρούμελη [παραδοσιακό]
TTITLE1=Μαρή κακιά γειτόνισσα [Σ. Κολλητήρη]
TTITLE2=Τρικαλινή μου πέρδικα [παραδοσιακό]
TTITLE3=Μιά κοντή κοντούλα [παραδοσιακό]
TTITLE4=Όλα τα πουλάκια [παραδοσιακό]
TTITLE5=Νερατζούλα [Σ. Κολλητήρη]
TTITLE6=Μαρία Πενταγιώτισσα [Σ. Κολλητήρη]
TTITLE7=Τζάνε ποταμέ [παραδοσιακό]
TTITLE8=Στην βρύση, στην κρυόβρυση [Γ. Μηττάκη]
TTITLE9=Αγάπα με πουλάκι μου [παραδοσιακό]
TTITLE10=Τούτη η γη, κυρα Γιώργαινα [Σ. Κολλητήρη]
TTITLE11=Ο κατηφές [Σ. Κολλητήρη]
TTITLE12=Το φουστανάκι σου [Δ. Ατραΐδης]
TTITLE13=Τού Κίτσου η μάνα [παραδοσιακό]
TTITLE14=Σήκω λεβέντη μ' το πρωΐ [παραδοσιακό]
TTITLE15=Ο αμάραντος [παραδοσιακό]
EXTD=
EXTT0=
EXTT1=
EXTT2=
EXTT3=
EXTT4=
EXTT5=
EXTT6=
EXTT7=
EXTT8=
EXTT9=
EXTT10=
EXTT11=
EXTT12=
EXTT13=
EXTT14=
EXTT15=
PLAYORDER=
